<svg width="46" height="46" viewBox="0 0 46 46" fill="none" xmlns="http://www.w3.org/2000/svg">
<circle cx="23" cy="23" r="23" fill="#E6E6E6"/>
<path d="M33.2133 12.3199C29.6933 9.9199 25.3466 11.0399 23 13.7866C20.6533 11.0399 16.3066 9.90656 12.7866 12.3199C10.92 13.5999 9.74663 15.7599 9.66663 18.0399C9.47996 23.2132 14.0666 27.3599 21.0666 33.7199L21.2 33.8399C22.2133 34.7599 23.7733 34.7599 24.7866 33.8266L24.9333 33.6932C31.9333 27.3466 36.5066 23.1999 36.3333 18.0266C36.2533 15.7599 35.08 13.5999 33.2133 12.3199ZM23.1333 31.7332L23 31.8666L22.8666 31.7332C16.52 25.9866 12.3333 22.1866 12.3333 18.3332C12.3333 15.6666 14.3333 13.6666 17 13.6666C19.0533 13.6666 21.0533 14.9866 21.76 16.8132H24.2533C24.9466 14.9866 26.9466 13.6666 29 13.6666C31.6666 13.6666 33.6666 15.6666 33.6666 18.3332C33.6666 22.1866 29.48 25.9866 23.1333 31.7332Z" fill="#1E1E1E"/>
</svg>
