<svg width="46" height="46" viewBox="0 0 46 46" fill="none" xmlns="http://www.w3.org/2000/svg">
<circle cx="23" cy="23" r="23" fill="#E6E6E6"/>
<path d="M31 28.4398C29.9867 28.4398 29.08 28.8398 28.3867 29.4665L18.88 23.9332C18.9467 23.6265 19 23.3198 19 22.9998C19 22.6798 18.9467 22.3732 18.88 22.0665L28.28 16.5865C29 17.2532 29.9467 17.6665 31 17.6665C33.2133 17.6665 35 15.8798 35 13.6665C35 11.4532 33.2133 9.6665 31 9.6665C28.7867 9.6665 27 11.4532 27 13.6665C27 13.9865 27.0533 14.2932 27.12 14.5998L17.72 20.0798C17 19.4132 16.0533 18.9998 15 18.9998C12.7867 18.9998 11 20.7865 11 22.9998C11 25.2132 12.7867 26.9998 15 26.9998C16.0533 26.9998 17 26.5865 17.72 25.9198L27.2133 31.4665C27.1467 31.7465 27.1067 32.0398 27.1067 32.3332C27.1067 34.4798 28.8533 36.2265 31 36.2265C33.1467 36.2265 34.8933 34.4798 34.8933 32.3332C34.8933 30.1865 33.1467 28.4398 31 28.4398ZM31 12.3332C31.7333 12.3332 32.3333 12.9332 32.3333 13.6665C32.3333 14.3998 31.7333 14.9998 31 14.9998C30.2667 14.9998 29.6667 14.3998 29.6667 13.6665C29.6667 12.9332 30.2667 12.3332 31 12.3332ZM15 24.3332C14.2667 24.3332 13.6667 23.7332 13.6667 22.9998C13.6667 22.2665 14.2667 21.6665 15 21.6665C15.7333 21.6665 16.3333 22.2665 16.3333 22.9998C16.3333 23.7332 15.7333 24.3332 15 24.3332ZM31 33.6932C30.2667 33.6932 29.6667 33.0932 29.6667 32.3598C29.6667 31.6265 30.2667 31.0265 31 31.0265C31.7333 31.0265 32.3333 31.6265 32.3333 32.3598C32.3333 33.0932 31.7333 33.6932 31 33.6932Z" fill="#1E1E1E"/>
</svg>
