<svg width="39" height="39" viewBox="0 0 39 39" fill="none" xmlns="http://www.w3.org/2000/svg">
<g id="icon/close">
<path id="Vector" d="M29.497 9.20378C28.8684 8.57515 27.8529 8.57515 27.2243 9.20378L19.3422 17.0698L11.46 9.18766C10.8314 8.55903 9.81593 8.55903 9.1873 9.18766C8.55866 9.8163 8.55866 10.8318 9.1873 11.4604L17.0694 19.3425L9.1873 27.2246C8.55866 27.8533 8.55866 28.8687 9.1873 29.4974C9.81593 30.126 10.8314 30.126 11.46 29.4974L19.3422 21.6153L27.2243 29.4974C27.8529 30.126 28.8684 30.126 29.497 29.4974C30.1256 28.8687 30.1256 27.8533 29.497 27.2246L21.6149 19.3425L29.497 11.4604C30.1095 10.8479 30.1095 9.8163 29.497 9.20378Z" fill="#C4C4C4"/>
</g>
</svg>
