<svg width="30" height="30" viewBox="0 0 32 32" fill="none" xmlns="http://www.w3.org/2000/svg">
<path d="M6.84119 28C6.56595 28 6.39595 27.9878 6.36357 27.9838C5.87786 27.9473 5.44881 27.6393 5.25857 27.1934C5.06429 26.7435 5.13714 26.2247 5.44476 25.8437C6.06405 25.0736 6.52952 24.3198 6.83714 23.5862C4.38429 21.4988 3 18.6454 3 15.6299C3 9.49345 8.71929 4.5 15.75 4.5C22.7807 4.5 28.5 9.49345 28.5 15.6299C28.5 21.7663 22.7807 26.7597 15.75 26.7597C14.6005 26.7597 13.451 26.6219 12.3257 26.3423C10.3383 27.8257 7.86929 27.9959 6.84524 27.9959L6.84119 28ZM15.75 7.13453C10.1683 7.13453 5.63095 10.9445 5.63095 15.6299C5.63095 18.0942 6.91405 20.4369 9.14833 22.0581C9.58952 22.3783 9.78786 22.9336 9.65024 23.4605C9.51262 23.9874 9.31429 24.5184 9.05929 25.0534C9.76762 24.8467 10.5043 24.5022 11.1074 23.9347C11.4474 23.6145 11.9331 23.497 12.3824 23.6307C13.4833 23.959 14.6167 24.1252 15.75 24.1252C21.3317 24.1252 25.869 20.3112 25.869 15.6299C25.869 10.9485 21.3317 7.13453 15.75 7.13453Z" fill="#1E1E1E"/>
<path d="M17.0653 14.6165H9.57719C8.85267 14.6165 8.26172 14.0247 8.26172 13.2992C8.26172 12.5737 8.85267 11.9819 9.57719 11.9819H17.0653C17.7898 11.9819 18.3808 12.5737 18.3808 13.2992C18.3808 14.0247 17.7898 14.6165 17.0653 14.6165Z" fill="#1E1E1E"/>
<path d="M21.5181 14.6165H21.1133C20.3888 14.6165 19.7979 14.0247 19.7979 13.2992C19.7979 12.5737 20.3888 11.9819 21.1133 11.9819H21.5181C22.2426 11.9819 22.8336 12.5737 22.8336 13.2992C22.8336 14.0247 22.2426 14.6165 21.5181 14.6165Z" fill="#1E1E1E"/>
<path d="M22.2866 19.0911H11.3985C10.674 19.0911 10.083 18.4993 10.083 17.7738C10.083 17.0483 10.674 16.4565 11.3985 16.4565H22.2866C23.0111 16.4565 23.6021 17.0483 23.6021 17.7738C23.6021 18.4993 23.0111 19.0911 22.2866 19.0911Z" fill="#1E1E1E"/>
</svg>
