<svg width="20" height="24" viewBox="0 0 20 24" fill="none" xmlns="http://www.w3.org/2000/svg">
<path id="Vector" d="M18.3081 2.43599C18.3081 1.72549 18.2619 0.848904 17.9298 0C17.9298 0 15.789 0.0184544 13.7775 1.92849C12.8456 1.6609 11.849 1.50404 10.8064 1.50404C9.76368 1.50404 8.76713 1.6609 7.83519 1.92849C5.81442 0.0184544 3.68294 0 3.68294 0C3.35998 0.848904 3.30462 1.72549 3.30462 2.43599C3.30462 3.51557 3.49839 4.1707 3.60912 4.50288C2.4834 5.75779 1.80058 7.30796 1.80058 8.99654C1.80058 12.2722 4.28271 14.293 7.79828 14.9942C7.00473 15.6863 6.52492 16.6551 6.36805 17.7439C6.03587 17.91 5.54683 17.9931 4.98397 17.9931C4.53184 17.9931 3.65526 17.7809 2.83403 16.5075C2.50185 15.9908 1.79135 14.9942 0.859403 14.9942C0.674858 14.9942 0.287321 14.985 0.296549 15.2618C0.296549 15.4002 0.508774 15.4002 0.95168 15.797C1.32077 16.1292 1.6714 16.6736 1.80058 17.2457C2.02204 18.1869 2.88939 20.06 4.98397 20.06C5.73138 20.06 6.29424 19.8754 6.29424 19.8754V23.308C7.71523 23.7509 9.22849 24 10.7971 24C12.3657 24 13.879 23.7601 15.3 23.308V18.3714C15.3 17.0242 14.7371 15.8247 13.8052 14.9942C17.3208 14.293 19.8029 12.2722 19.8029 8.99654C19.8029 7.33564 19.1478 5.81315 18.0589 4.56747C18.1512 4.2722 18.3081 3.59862 18.3081 2.43599Z" fill="#1E1E1E"/>
</svg>
