<svg width="26" height="26" viewBox="0 0 26 26" fill="none" xmlns="http://www.w3.org/2000/svg">
<g id="icons8-&#234;&#181;&#172;&#234;&#184;&#128;-&#235;&#161;&#156;&#234;&#179;&#160; 1">
<path id="Vector" d="M23.6229 10.8783H22.7503V10.8334H13.0003V15.1667H19.1228C18.2296 17.6892 15.8294 19.5 13.0003 19.5C9.4107 19.5 6.50033 16.5896 6.50033 13C6.50033 9.41039 9.4107 6.50002 13.0003 6.50002C14.6573 6.50002 16.1647 7.1251 17.3125 8.14614L20.3767 5.08194C18.4419 3.27873 15.8538 2.16669 13.0003 2.16669C7.01762 2.16669 2.16699 7.01731 2.16699 13C2.16699 18.9827 7.01762 23.8334 13.0003 23.8334C18.983 23.8334 23.8337 18.9827 23.8337 13C23.8337 12.2736 23.7589 11.5646 23.6229 10.8783Z" fill="#FFC107"/>
<path id="Vector_2" d="M3.41602 7.95764L6.97531 10.5679C7.93839 8.18352 10.2708 6.50002 13.0003 6.50002C14.6572 6.50002 16.1647 7.1251 17.3125 8.14614L20.3767 5.08194C18.4418 3.27873 15.8538 2.16669 13.0003 2.16669C8.83918 2.16669 5.2306 4.5159 3.41602 7.95764Z" fill="#FF3D00"/>
<path id="Vector_3" d="M12.9998 23.8333C15.7981 23.8333 18.3407 22.7625 20.2631 21.021L16.9101 18.1838C15.8225 19.0076 14.4705 19.5 12.9998 19.5C10.1821 19.5 7.78955 17.7033 6.88822 15.1959L3.35547 17.9178C5.14839 21.4262 8.78947 23.8333 12.9998 23.8333Z" fill="#4CAF50"/>
<path id="Vector_4" d="M23.6226 10.8783H22.75V10.8333H13V15.1666H19.1225C18.6935 16.3784 17.914 17.4232 16.9087 18.1843L16.9103 18.1832L20.2632 21.0204C20.026 21.236 23.8333 18.4166 23.8333 13C23.8333 12.2736 23.7586 11.5646 23.6226 10.8783Z" fill="#1976D2"/>
</g>
</svg>
