<svg width="25" height="24" viewBox="0 0 25 24" fill="none" xmlns="http://www.w3.org/2000/svg">
<g id="Group">
<path id="Vector" d="M12.0895 18.4617C8.52639 18.4617 5.62793 15.5632 5.62793 12.0001C5.62793 8.43704 8.52639 5.53857 12.0895 5.53857C15.6525 5.53857 18.551 8.43704 18.551 12.0001C18.551 15.5632 15.6525 18.4617 12.0895 18.4617ZM12.0895 7.38473C9.54178 7.38473 7.47408 9.45242 7.47408 12.0001C7.47408 14.5478 9.54178 16.6155 12.0895 16.6155C14.6372 16.6155 16.7049 14.5478 16.7049 12.0001C16.7049 9.45242 14.6372 7.38473 12.0895 7.38473Z" fill="#1E1E1E"/>
<path id="Vector_2" d="M19.0125 6.46161C19.7772 6.46161 20.3972 5.8417 20.3972 5.077C20.3972 4.3123 19.7772 3.69238 19.0125 3.69238C18.2478 3.69238 17.6279 4.3123 17.6279 5.077C17.6279 5.8417 18.2478 6.46161 19.0125 6.46161Z" fill="#1E1E1E"/>
<path id="Vector_3" d="M17.6278 24H6.55089C2.98782 24 0.0893555 21.1015 0.0893555 17.5385V6.46154C0.0893555 2.89846 2.98782 0 6.55089 0H17.6278C21.1909 0 24.0894 2.89846 24.0894 6.46154V17.5385C24.0894 21.1015 21.1909 24 17.6278 24ZM6.55089 1.84615C4.0032 1.84615 1.93551 3.91385 1.93551 6.46154V17.5385C1.93551 20.0862 4.0032 22.1538 6.55089 22.1538H17.6278C20.1755 22.1538 22.2432 20.0862 22.2432 17.5385V6.46154C22.2432 3.91385 20.1755 1.84615 17.6278 1.84615H6.55089Z" fill="#1E1E1E"/>
</g>
</svg>
