<svg width="30" height="30" viewBox="0 0 64 64" fill="none" xmlns="http://www.w3.org/2000/svg">
<g id="Property 1=default">
<path id="Vector" d="M52.4276 10.6398C45.3876 5.83979 36.6942 8.07979 32.0009 13.5731C27.3076 8.07979 18.6142 5.81312 11.5742 10.6398C7.84089 13.1998 5.49423 17.5198 5.33423 22.0798C4.96089 32.4265 14.1342 40.7198 28.1342 53.4398L28.4009 53.6798C30.4276 55.5198 33.5476 55.5198 35.5742 53.6531L35.8676 53.3865C49.8676 40.6931 59.0142 32.3998 58.6676 22.0531C58.5076 17.5198 56.1609 13.1998 52.4276 10.6398ZM32.2676 49.4665L32.0009 49.7331L31.7342 49.4665C19.0409 37.9731 10.6676 30.3731 10.6676 22.6665C10.6676 17.3331 14.6676 13.3331 20.0009 13.3331C24.1076 13.3331 28.1076 15.9731 29.5209 19.6265H34.5076C35.8942 15.9731 39.8942 13.3331 44.0009 13.3331C49.3342 13.3331 53.3342 17.3331 53.3342 22.6665C53.3342 30.3731 44.9609 37.9731 32.2676 49.4665Z" fill="#1E1E1E"/>
</g>
</svg>
