<svg width="10" height="10" viewBox="0 0 18 19" fill="none" xmlns="http://www.w3.org/2000/svg">
<path fill-rule="evenodd" clip-rule="evenodd" d="M7.57886 17.0789C7.57886 17.8638 8.21508 18.5 8.99991 18.5C9.78474 18.5 10.421 17.8638 10.421 17.0789V10.921H16.5789C17.3638 10.921 18 10.2848 18 9.49994C18 8.71512 17.3638 8.07889 16.5789 8.07889H10.421V1.92105C10.421 1.13623 9.78474 0.5 8.99991 0.5C8.21508 0.5 7.57886 1.13623 7.57886 1.92105V8.07889H1.42105C0.636227 8.07889 0 8.71512 0 9.49994C0 10.2848 0.636227 10.921 1.42105 10.921H7.57886V17.0789Z" fill="#747474"/>
</svg>
