<svg width="56" height="56" viewBox="0 0 56 56" fill="none" xmlns="http://www.w3.org/2000/svg">
<path d="M42.0003 46.6668H9.33366V14.0002H30.3337V9.3335H9.33366C6.76699 9.3335 4.66699 11.4335 4.66699 14.0002V46.6668C4.66699 49.2335 6.76699 51.3335 9.33366 51.3335H42.0003C44.567 51.3335 46.667 49.2335 46.667 46.6668V25.6668H42.0003V46.6668ZM23.8237 39.2702L19.2503 33.7635L12.8337 42.0002H38.5003L30.2403 31.0102L23.8237 39.2702ZM46.667 9.3335V2.3335H42.0003V9.3335H35.0003C35.0237 9.35683 35.0003 14.0002 35.0003 14.0002H42.0003V20.9768C42.0237 21.0002 46.667 20.9768 46.667 20.9768V14.0002H53.667V9.3335H46.667Z" fill="#5956E9"/>
</svg>
