<svg width="24" height="24" viewBox="0 0 24 24" fill="none" xmlns="http://www.w3.org/2000/svg">
<path d="M23 23L17.5003 17.5003M10.1666 19.3331C11.3703 19.3331 12.5623 19.096 13.6744 18.6353C14.7866 18.1747 15.7971 17.4995 16.6483 16.6483C17.4995 15.7971 18.1747 14.7866 18.6353 13.6744C19.096 12.5623 19.3331 11.3703 19.3331 10.1666C19.3331 8.96279 19.096 7.7708 18.6353 6.65867C18.1747 5.54653 17.4995 4.53602 16.6483 3.68482C15.7971 2.83363 14.7866 2.15842 13.6744 1.69776C12.5623 1.2371 11.3703 1 10.1666 1C7.73543 1 5.40388 1.96576 3.68482 3.68482C1.96576 5.40388 1 7.73543 1 10.1666C1 12.5977 1.96576 14.9292 3.68482 16.6483C5.40388 18.3674 7.73543 19.3331 10.1666 19.3331Z" stroke="#5956E9" stroke-linecap="round"/>
</svg>
