<svg width="30" height="30" viewBox="0 0 24 28" fill="none" xmlns="http://www.w3.org/2000/svg">
<path id="Vector" d="M20 19.4398C18.9867 19.4398 18.08 19.8398 17.3867 20.4665L7.88 14.9332C7.94667 14.6265 8 14.3198 8 13.9998C8 13.6798 7.94667 13.3732 7.88 13.0665L17.28 7.5865C18 8.25317 18.9467 8.6665 20 8.6665C22.2133 8.6665 24 6.87984 24 4.6665C24 2.45317 22.2133 0.666504 20 0.666504C17.7867 0.666504 16 2.45317 16 4.6665C16 4.9865 16.0533 5.29317 16.12 5.59984L6.72 11.0798C6 10.4132 5.05333 9.99984 4 9.99984C1.78667 9.99984 0 11.7865 0 13.9998C0 16.2132 1.78667 17.9998 4 17.9998C5.05333 17.9998 6 17.5865 6.72 16.9198L16.2133 22.4665C16.1467 22.7465 16.1067 23.0398 16.1067 23.3332C16.1067 25.4798 17.8533 27.2265 20 27.2265C22.1467 27.2265 23.8933 25.4798 23.8933 23.3332C23.8933 21.1865 22.1467 19.4398 20 19.4398ZM20 3.33317C20.7333 3.33317 21.3333 3.93317 21.3333 4.6665C21.3333 5.39984 20.7333 5.99984 20 5.99984C19.2667 5.99984 18.6667 5.39984 18.6667 4.6665C18.6667 3.93317 19.2667 3.33317 20 3.33317ZM4 15.3332C3.26667 15.3332 2.66667 14.7332 2.66667 13.9998C2.66667 13.2665 3.26667 12.6665 4 12.6665C4.73333 12.6665 5.33333 13.2665 5.33333 13.9998C5.33333 14.7332 4.73333 15.3332 4 15.3332ZM20 24.6932C19.2667 24.6932 18.6667 24.0932 18.6667 23.3598C18.6667 22.6265 19.2667 22.0265 20 22.0265C20.7333 22.0265 21.3333 22.6265 21.3333 23.3598C21.3333 24.0932 20.7333 24.6932 20 24.6932Z" fill="#1E1E1E"/>
</svg>
